<svg width="25" height="25" viewBox="0 0 25 25" fill="none" xmlns="http://www.w3.org/2000/svg">
<path fill-rule="evenodd" clip-rule="evenodd" d="M12.4675 0C5.58125 0 0 5.58125 0 12.4675C0 17.975 3.57125 22.6487 8.52625 24.2987C9.15 24.4112 9.375 24.0275 9.375 23.6975C9.375 23.4013 9.365 22.6162 9.36125 21.5775C5.8925 22.33 5.16 19.905 5.16 19.905C4.595 18.465 3.77625 18.0813 3.77625 18.0813C2.645 17.3075 3.8625 17.325 3.8625 17.325C5.115 17.4125 5.77125 18.61 5.77125 18.61C6.88375 20.515 8.69125 19.965 9.39875 19.6462C9.5125 18.84 9.8375 18.29 10.1925 17.9787C7.425 17.665 4.515 16.595 4.515 11.8163C4.515 10.4575 5.00125 9.3425 5.795 8.4725C5.66875 8.15625 5.2375 6.8875 5.91875 5.1725C5.91875 5.1725 6.965 4.83625 9.34625 6.44875C10.3632 6.17209 11.4123 6.03087 12.4662 6.02875C13.5202 6.03046 14.5693 6.17169 15.5862 6.44875C17.9687 4.835 19.0138 5.1725 19.0138 5.1725C19.695 6.8875 19.2675 8.15625 19.1375 8.4725C19.9375 9.3425 20.4175 10.4563 20.4175 11.8163C20.4175 16.6075 17.505 17.66 14.7275 17.9688C15.1712 18.3537 15.5712 19.1138 15.5712 20.2763C15.5712 21.9438 15.5562 23.2888 15.5562 23.6975C15.5562 24.0313 15.7787 24.4188 16.415 24.2963C21.3675 22.6438 24.935 17.9738 24.935 12.4675C24.935 5.58125 19.3537 0 12.4675 0Z" fill="#040A10"/>
</svg>
