<svg width="23" height="23" viewBox="0 0 23 23" fill="none" xmlns="http://www.w3.org/2000/svg">
<path d="M21.25 0H1.25C0.918479 0 0.600537 0.131696 0.366116 0.366116C0.131696 0.600537 0 0.918479 0 1.25V21.25C0 21.5815 0.131696 21.8995 0.366116 22.1339C0.600537 22.3683 0.918479 22.5 1.25 22.5H21.25C21.5815 22.5 21.8995 22.3683 22.1339 22.1339C22.3683 21.8995 22.5 21.5815 22.5 21.25V1.25C22.5 0.918479 22.3683 0.600537 22.1339 0.366116C21.8995 0.131696 21.5815 0 21.25 0ZM6.67375 19.1712H3.33375V8.43375H6.67375V19.1712ZM5.00375 6.9675C4.49056 6.9675 3.99838 6.76363 3.6355 6.40075C3.27262 6.03787 3.06875 5.54569 3.06875 5.0325C3.06875 4.51931 3.27262 4.02713 3.6355 3.66425C3.99838 3.30137 4.49056 3.0975 5.00375 3.0975C5.51694 3.0975 6.00912 3.30137 6.372 3.66425C6.73488 4.02713 6.93875 4.51931 6.93875 5.0325C6.93875 5.54569 6.73488 6.03787 6.372 6.40075C6.00912 6.76363 5.51694 6.9675 5.00375 6.9675ZM19.1725 19.1712H15.8362V13.95C15.8362 12.705 15.8138 11.1038 14.1013 11.1038C12.3638 11.1038 12.1 12.4613 12.1 13.8625V19.1725H8.76625V8.435H11.9662V9.9025H12.0125C12.4562 9.05875 13.5462 8.16875 15.1675 8.16875C18.5475 8.16875 19.1712 10.3912 19.1712 13.2837V19.1712H19.1725Z" fill="#F2F2F2"/>
</svg>
